<svg aria-hidden="true" style="position: absolute; width: 0; height: 0; overflow: hidden;" version="1.1"
    xmlns="http://www.w3.org/2000/svg"
    xmlns:xlink="http://www.w3.org/1999/xlink">
    <defs>
        <symbol id="icon-Vector-10-1" viewBox="0 0 44 32">
            <path d="M41.185 2.114c0.483 0.483 0.781 1.151 0.781 1.888s-0.298 1.405-0.781 1.888l-24 24c-0.483 0.484-1.151 0.783-1.888 0.783s-1.405-0.299-1.888-0.783l-10.664-10.668c-0.441-0.475-0.712-1.114-0.712-1.816 0-1.476 1.196-2.672 2.672-2.672 0.702 0 1.34 0.271 1.817 0.713l-0.002-0.002 8.776 8.784 22.112-22.12c0.483-0.484 1.151-0.783 1.888-0.783s1.405 0.299 1.888 0.783l0 0z"></path>
        </symbol>

        <symbol id="icon-cross" viewBox="0 0 32 32">
            <path d="M31.708 25.708c-0-0-0-0-0-0l-9.708-9.708 9.708-9.708c0-0 0-0 0-0 0.105-0.105 0.18-0.227 0.229-0.357 0.133-0.356 0.057-0.771-0.229-1.057l-4.586-4.586c-0.286-0.286-0.702-0.361-1.057-0.229-0.13 0.048-0.252 0.124-0.357 0.228 0 0-0 0-0 0l-9.708 9.708-9.708-9.708c-0-0-0-0-0-0-0.105-0.104-0.227-0.18-0.357-0.228-0.356-0.133-0.771-0.057-1.057 0.229l-4.586 4.586c-0.286 0.286-0.361 0.702-0.229 1.057 0.049 0.13 0.124 0.252 0.229 0.357 0 0 0 0 0 0l9.708 9.708-9.708 9.708c-0 0-0 0-0 0-0.104 0.105-0.18 0.227-0.229 0.357-0.133 0.355-0.057 0.771 0.229 1.057l4.586 4.586c0.286 0.286 0.702 0.361 1.057 0.229 0.13-0.049 0.252-0.124 0.357-0.229 0-0 0-0 0-0l9.708-9.708 9.708 9.708c0 0 0 0 0 0 0.105 0.105 0.227 0.18 0.357 0.229 0.356 0.133 0.771 0.057 1.057-0.229l4.586-4.586c0.286-0.286 0.362-0.702 0.229-1.057-0.049-0.13-0.124-0.252-0.229-0.357z"></path>
        </symbol>
        <symbol id="icon-checkmark" viewBox="0 0 44 32">
            <path d="M40.553 0.78c0.248 0.248 0.445 0.542 0.58 0.866s0.204 0.671 0.204 1.022-0.069 0.698-0.204 1.022c-0.135 0.324-0.332 0.618-0.58 0.866l-24 24c-0.248 0.248-0.542 0.445-0.866 0.58s-0.671 0.204-1.022 0.204-0.698-0.069-1.022-0.204c-0.324-0.134-0.618-0.331-0.866-0.58l-10.667-10.667c-0.501-0.501-0.782-1.18-0.782-1.888s0.281-1.387 0.782-1.888c0.501-0.501 1.18-0.782 1.888-0.782s1.387 0.281 1.888 0.782l8.779 8.784 22.112-22.117c0.248-0.248 0.542-0.445 0.866-0.58s0.671-0.204 1.022-0.204 0.698 0.069 1.022 0.204c0.324 0.134 0.618 0.331 0.866 0.58z"></path>
        </symbol>
        <symbol id="icon-arrow" viewBox="0 0 32 32">
            <path d="M18.69 20.972c-0.085 0-0.172-0.034-0.237-0.099-0.13-0.13-0.13-0.343 0-0.474l4.459-4.459-4.393-4.393c-0.13-0.13-0.13-0.343 0-0.474s0.343-0.13 0.474 0l4.632 4.63c0.13 0.13 0.13 0.343 0 0.474l-4.695 4.695c-0.067 0.067-0.152 0.099-0.239 0.099z"></path>
            <path d="M13.31 20.972c0.085 0 0.172-0.034 0.237-0.099 0.13-0.13 0.13-0.343 0-0.474l-4.459-4.459 4.393-4.393c0.13-0.13 0.13-0.343 0-0.474s-0.343-0.13-0.474 0l-4.632 4.63c-0.13 0.13-0.13 0.343 0 0.474l4.695 4.695c0.067 0.067 0.152 0.099 0.239 0.099z"></path>
            <path stroke-linejoin="miter" stroke-linecap="butt" stroke-miterlimit="4" stroke-width="0.4211" d="M0.211 16c0 8.72 7.069 15.789 15.789 15.789s15.789-7.069 15.789-15.789c0-8.72-7.069-15.789-15.789-15.789s-15.789 7.069-15.789 15.789z"></path>
        </symbol>
        <symbol id="icon-back" viewBox="0 0 19 32">
            <path d="M16.815 31.744c0.269 0 0.544-0.106 0.75-0.313 0.413-0.413 0.413-1.087 0-1.5l-14.119-14.119 13.913-13.912c0.412-0.413 0.412-1.087 0-1.5s-1.088-0.412-1.5 0l-14.669 14.662c-0.412 0.413-0.412 1.087 0 1.5l14.869 14.869c0.213 0.213 0.481 0.313 0.756 0.313z"></path>
        </symbol>
        <symbol id="icon-next" viewBox="0 0 19 32">
            <path d="M1.852 31.744c-0.269 0-0.544-0.106-0.75-0.313-0.412-0.413-0.412-1.087 0-1.5l14.119-14.119-13.912-13.912c-0.412-0.413-0.412-1.087 0-1.5s1.087-0.412 1.5 0l14.669 14.662c0.413 0.413 0.413 1.087 0 1.5l-14.869 14.869c-0.212 0.213-0.481 0.313-0.756 0.313z"></path>
        </symbol>
        <symbol id="icon-Vector-2" viewBox="0 0 32 32">
            <path d="M19.044 13.55l11.913-13.55h-2.823l-10.343 11.765-8.262-11.765h-9.529l12.493 17.791-12.493 14.209h2.823l10.923-12.424 8.725 12.424h9.529l-12.956-18.45zM15.178 17.948l-11.337-15.868h4.336l19.959 27.935h-4.336l-8.622-12.068z"></path>
        </symbol>
        <symbol id="icon-Vector-1" viewBox="0 0 19 32">
            <path stroke-linejoin="round" stroke-linecap="round" stroke-miterlimit="4" stroke-width="1.7778" d="M17.185 1.185h-4.444c-1.965 0-3.849 0.78-5.238 2.17s-2.17 3.273-2.17 5.238v4.444h-4.444v5.926h4.444v11.852h5.926v-11.852h4.444l1.481-5.926h-5.926v-4.444c0-0.393 0.156-0.77 0.434-1.048s0.655-0.434 1.048-0.434h4.444v-5.926z"></path>
        </symbol>
        <symbol id="icon-Vector" viewBox="0 0 32 32">
            <path d="M16 8.19c-1.545 0-3.054 0.458-4.339 1.316s-2.285 2.078-2.876 3.505c-0.591 1.427-0.746 2.997-0.444 4.512s1.045 2.906 2.137 3.998c1.092 1.092 2.484 1.836 3.999 2.137s3.085 0.147 4.512-0.444c1.427-0.591 2.647-1.592 3.505-2.876s1.316-2.794 1.316-4.339c0.003-1.026-0.198-2.043-0.589-2.992s-0.967-1.81-1.692-2.536c-0.726-0.726-1.588-1.301-2.536-1.692s-1.965-0.592-2.992-0.589zM16 21.085c-1.006 0-1.989-0.298-2.825-0.857s-1.488-1.353-1.873-2.282c-0.385-0.929-0.486-1.952-0.289-2.938s0.681-1.893 1.392-2.604c0.711-0.711 1.617-1.196 2.604-1.392s2.009-0.096 2.938 0.289c0.929 0.385 1.724 1.037 2.282 1.873s0.857 1.82 0.857 2.825c0 1.349-0.536 2.642-1.489 3.596s-2.247 1.489-3.596 1.489zM25.962 7.866c0 0.377-0.112 0.745-0.321 1.058s-0.507 0.557-0.855 0.702c-0.348 0.144-0.731 0.182-1.1 0.108s-0.709-0.255-0.975-0.521c-0.266-0.266-0.448-0.606-0.521-0.975s-0.036-0.752 0.108-1.101c0.144-0.348 0.388-0.646 0.702-0.855s0.681-0.321 1.058-0.321c0.505 0 0.99 0.201 1.347 0.558s0.558 0.842 0.558 1.347zM31.124 9.771c0.058-2.368-0.826-4.663-2.457-6.381-0.846-0.818-1.845-1.461-2.94-1.892s-2.264-0.643-3.441-0.622c-2.476-0.114-10.095-0.114-12.571 0-2.367-0.051-4.66 0.831-6.381 2.457-1.631 1.718-2.515 4.013-2.457 6.381-0.114 2.476-0.114 10.095 0 12.571-0.057 2.368 0.826 4.663 2.457 6.381 1.721 1.626 4.014 2.508 6.381 2.457 2.514 0.152 10.057 0.152 12.571 0 2.368 0.058 4.663-0.826 6.381-2.457 1.631-1.718 2.515-4.013 2.457-6.381 0.114-2.476 0.114-10.095 0-12.571v0.057zM27.885 25.009c-0.259 0.655-0.649 1.25-1.147 1.748s-1.093 0.888-1.748 1.147c-2.957 0.598-5.98 0.803-8.991 0.61-3.004 0.192-6.021-0.013-8.971-0.61-0.655-0.259-1.25-0.649-1.748-1.147s-0.888-1.093-1.147-1.748c-0.8-2.019-0.629-6.781-0.629-8.991s-0.171-6.99 0.629-8.99c0.251-0.662 0.639-1.263 1.138-1.765s1.098-0.894 1.758-1.149c2.951-0.596 5.967-0.801 8.971-0.61 3.011-0.193 6.034 0.012 8.991 0.61 0.655 0.259 1.25 0.649 1.748 1.147s0.888 1.093 1.147 1.748c0.8 2.019 0.61 6.781 0.61 8.99s0.19 6.991-0.61 8.991v0.019z"></path>
        </symbol>
        <symbol id="icon-menu" viewBox="0 0 45 32">
            <path d="M0 0h45.333v2.667h-45.333v-2.667z"></path>
            <path d="M0 14.667h45.333v2.667h-45.333v-2.667z"></path>
            <path d="M0 29.333h45.333v2.667h-45.333v-2.667z"></path>
        </symbol>
        <symbol id="icon-checkmark1" viewBox="0 0 32 32">
            <path d="M27 4l-15 15-7-7-5 5 12 12 20-20z"></path>
        </symbol>
    </defs>
</svg>
